<mxfile host="app.diagrams.net" modified="2022-07-24T09:49:16.560Z" agent="5.0 (Windows NT 10.0; Win64; x64) AppleWebKit/537.36 (KHTML, like Gecko) Chrome/103.0.0.0 Safari/537.36" etag="-K3vCA8AjiC-9TJZDIkT" version="20.1.1" type="github">
  <diagram id="6a731a19-8d31-9384-78a2-239565b7b9f0" name="Page-1">
    <mxGraphModel dx="1153" dy="599" grid="1" gridSize="10" guides="1" tooltips="1" connect="1" arrows="1" fold="1" page="1" pageScale="1" pageWidth="1169" pageHeight="827" background="none" math="0" shadow="0">
      <root>
        <mxCell id="0" />
        <mxCell id="1" parent="0" />
        <mxCell id="P0PGrkJmzhgVx_-Z9-eN-57" value="" style="edgeStyle=orthogonalEdgeStyle;rounded=0;orthogonalLoop=1;jettySize=auto;html=1;" edge="1" parent="1" source="P0PGrkJmzhgVx_-Z9-eN-55">
          <mxGeometry relative="1" as="geometry">
            <mxPoint x="420" y="170" as="targetPoint" />
          </mxGeometry>
        </mxCell>
        <mxCell id="P0PGrkJmzhgVx_-Z9-eN-55" value="抖音首页查询" style="rounded=0;whiteSpace=wrap;html=1;" vertex="1" parent="1">
          <mxGeometry x="360" y="70" width="120" height="60" as="geometry" />
        </mxCell>
        <mxCell id="P0PGrkJmzhgVx_-Z9-eN-60" value="" style="edgeStyle=orthogonalEdgeStyle;rounded=0;orthogonalLoop=1;jettySize=auto;html=1;" edge="1" parent="1" source="P0PGrkJmzhgVx_-Z9-eN-58" target="P0PGrkJmzhgVx_-Z9-eN-59">
          <mxGeometry relative="1" as="geometry" />
        </mxCell>
        <mxCell id="P0PGrkJmzhgVx_-Z9-eN-58" value="job" style="rounded=0;whiteSpace=wrap;html=1;" vertex="1" parent="1">
          <mxGeometry x="730" y="230" width="120" height="60" as="geometry" />
        </mxCell>
        <mxCell id="P0PGrkJmzhgVx_-Z9-eN-62" value="" style="edgeStyle=orthogonalEdgeStyle;rounded=0;orthogonalLoop=1;jettySize=auto;html=1;" edge="1" parent="1" source="P0PGrkJmzhgVx_-Z9-eN-59" target="P0PGrkJmzhgVx_-Z9-eN-61">
          <mxGeometry relative="1" as="geometry" />
        </mxCell>
        <mxCell id="P0PGrkJmzhgVx_-Z9-eN-95" value="" style="edgeStyle=orthogonalEdgeStyle;rounded=0;orthogonalLoop=1;jettySize=auto;html=1;dashed=1;dashPattern=1 4;" edge="1" parent="1" source="P0PGrkJmzhgVx_-Z9-eN-59" target="P0PGrkJmzhgVx_-Z9-eN-94">
          <mxGeometry relative="1" as="geometry" />
        </mxCell>
        <mxCell id="P0PGrkJmzhgVx_-Z9-eN-108" value="" style="edgeStyle=orthogonalEdgeStyle;rounded=0;orthogonalLoop=1;jettySize=auto;html=1;" edge="1" parent="1" source="P0PGrkJmzhgVx_-Z9-eN-59" target="P0PGrkJmzhgVx_-Z9-eN-66">
          <mxGeometry relative="1" as="geometry" />
        </mxCell>
        <mxCell id="P0PGrkJmzhgVx_-Z9-eN-59" value="定时更新首页缓存" style="rounded=0;whiteSpace=wrap;html=1;" vertex="1" parent="1">
          <mxGeometry x="730" y="340" width="120" height="60" as="geometry" />
        </mxCell>
        <mxCell id="P0PGrkJmzhgVx_-Z9-eN-64" value="" style="edgeStyle=orthogonalEdgeStyle;rounded=0;orthogonalLoop=1;jettySize=auto;html=1;entryX=0.5;entryY=1;entryDx=0;entryDy=0;" edge="1" parent="1" source="P0PGrkJmzhgVx_-Z9-eN-61" target="P0PGrkJmzhgVx_-Z9-eN-66">
          <mxGeometry relative="1" as="geometry">
            <mxPoint x="650" y="450" as="targetPoint" />
          </mxGeometry>
        </mxCell>
        <mxCell id="P0PGrkJmzhgVx_-Z9-eN-61" value="分页查询首页数据" style="rounded=0;whiteSpace=wrap;html=1;" vertex="1" parent="1">
          <mxGeometry x="730" y="445" width="120" height="60" as="geometry" />
        </mxCell>
        <mxCell id="P0PGrkJmzhgVx_-Z9-eN-93" value="" style="edgeStyle=orthogonalEdgeStyle;rounded=0;orthogonalLoop=1;jettySize=auto;html=1;dashed=1;entryX=0.5;entryY=1;entryDx=0;entryDy=0;dashPattern=1 4;" edge="1" parent="1" source="P0PGrkJmzhgVx_-Z9-eN-66" target="P0PGrkJmzhgVx_-Z9-eN-97">
          <mxGeometry relative="1" as="geometry">
            <mxPoint x="620" y="210" as="targetPoint" />
          </mxGeometry>
        </mxCell>
        <mxCell id="P0PGrkJmzhgVx_-Z9-eN-66" value="缓存" style="ellipse;whiteSpace=wrap;html=1;rounded=0;fillColor=#ffe6cc;strokeColor=#d79b00;" vertex="1" parent="1">
          <mxGeometry x="560" y="340" width="120" height="60" as="geometry" />
        </mxCell>
        <mxCell id="P0PGrkJmzhgVx_-Z9-eN-76" value="" style="edgeStyle=orthogonalEdgeStyle;rounded=0;orthogonalLoop=1;jettySize=auto;html=1;" edge="1" parent="1" source="P0PGrkJmzhgVx_-Z9-eN-72" target="P0PGrkJmzhgVx_-Z9-eN-75">
          <mxGeometry relative="1" as="geometry" />
        </mxCell>
        <mxCell id="P0PGrkJmzhgVx_-Z9-eN-91" value="" style="edgeStyle=orthogonalEdgeStyle;rounded=0;orthogonalLoop=1;jettySize=auto;html=1;" edge="1" parent="1" source="P0PGrkJmzhgVx_-Z9-eN-72" target="P0PGrkJmzhgVx_-Z9-eN-66">
          <mxGeometry relative="1" as="geometry" />
        </mxCell>
        <mxCell id="P0PGrkJmzhgVx_-Z9-eN-72" value="查询缓存" style="whiteSpace=wrap;html=1;" vertex="1" parent="1">
          <mxGeometry x="360" y="340" width="120" height="60" as="geometry" />
        </mxCell>
        <mxCell id="P0PGrkJmzhgVx_-Z9-eN-78" value="" style="edgeStyle=orthogonalEdgeStyle;rounded=0;orthogonalLoop=1;jettySize=auto;html=1;" edge="1" parent="1" source="P0PGrkJmzhgVx_-Z9-eN-75">
          <mxGeometry relative="1" as="geometry">
            <mxPoint x="420" y="670" as="targetPoint" />
          </mxGeometry>
        </mxCell>
        <mxCell id="P0PGrkJmzhgVx_-Z9-eN-79" value="是" style="edgeLabel;html=1;align=center;verticalAlign=middle;resizable=0;points=[];" vertex="1" connectable="0" parent="P0PGrkJmzhgVx_-Z9-eN-78">
          <mxGeometry x="0.2024" relative="1" as="geometry">
            <mxPoint y="-13" as="offset" />
          </mxGeometry>
        </mxCell>
        <mxCell id="P0PGrkJmzhgVx_-Z9-eN-90" value="" style="edgeStyle=orthogonalEdgeStyle;rounded=0;orthogonalLoop=1;jettySize=auto;html=1;entryX=0.5;entryY=1;entryDx=0;entryDy=0;" edge="1" parent="1" source="P0PGrkJmzhgVx_-Z9-eN-75" target="P0PGrkJmzhgVx_-Z9-eN-61">
          <mxGeometry relative="1" as="geometry">
            <mxPoint x="530" y="508.0000000000001" as="targetPoint" />
          </mxGeometry>
        </mxCell>
        <mxCell id="P0PGrkJmzhgVx_-Z9-eN-75" value="缓存是否有数据" style="rhombus;whiteSpace=wrap;html=1;" vertex="1" parent="1">
          <mxGeometry x="375" y="520" width="90" height="76" as="geometry" />
        </mxCell>
        <mxCell id="P0PGrkJmzhgVx_-Z9-eN-94" value="apollo配置热缓存条数size" style="whiteSpace=wrap;html=1;rounded=0;fillColor=#ffe6cc;strokeColor=#d79b00;" vertex="1" parent="1">
          <mxGeometry x="930" y="340" width="150" height="60" as="geometry" />
        </mxCell>
        <mxCell id="P0PGrkJmzhgVx_-Z9-eN-97" value="key: MiNiAppIndex_hold&lt;br&gt;expTime：60s" style="text;html=1;strokeColor=none;fillColor=none;align=center;verticalAlign=middle;whiteSpace=wrap;rounded=0;" vertex="1" parent="1">
          <mxGeometry x="535" y="220" width="170" height="70" as="geometry" />
        </mxCell>
        <mxCell id="P0PGrkJmzhgVx_-Z9-eN-98" value="返回" style="strokeWidth=2;html=1;shape=mxgraph.flowchart.terminator;whiteSpace=wrap;" vertex="1" parent="1">
          <mxGeometry x="370" y="670" width="100" height="60" as="geometry" />
        </mxCell>
        <mxCell id="P0PGrkJmzhgVx_-Z9-eN-101" value="" style="edgeStyle=orthogonalEdgeStyle;rounded=0;orthogonalLoop=1;jettySize=auto;html=1;dashed=1;dashPattern=1 4;" edge="1" parent="1" source="P0PGrkJmzhgVx_-Z9-eN-99" target="P0PGrkJmzhgVx_-Z9-eN-94">
          <mxGeometry relative="1" as="geometry" />
        </mxCell>
        <mxCell id="P0PGrkJmzhgVx_-Z9-eN-102" value="" style="edgeStyle=orthogonalEdgeStyle;rounded=0;orthogonalLoop=1;jettySize=auto;html=1;" edge="1" parent="1" source="P0PGrkJmzhgVx_-Z9-eN-99">
          <mxGeometry relative="1" as="geometry">
            <mxPoint x="420" y="260" as="targetPoint" />
          </mxGeometry>
        </mxCell>
        <mxCell id="P0PGrkJmzhgVx_-Z9-eN-99" value="查询apollo配置的缓存条数" style="rounded=0;whiteSpace=wrap;html=1;" vertex="1" parent="1">
          <mxGeometry x="360" y="170" width="120" height="60" as="geometry" />
        </mxCell>
        <mxCell id="P0PGrkJmzhgVx_-Z9-eN-104" value="" style="edgeStyle=orthogonalEdgeStyle;rounded=0;orthogonalLoop=1;jettySize=auto;html=1;entryX=0.5;entryY=0;entryDx=0;entryDy=0;" edge="1" parent="1" source="P0PGrkJmzhgVx_-Z9-eN-103" target="P0PGrkJmzhgVx_-Z9-eN-72">
          <mxGeometry relative="1" as="geometry">
            <mxPoint x="420" y="370" as="targetPoint" />
            <Array as="points" />
          </mxGeometry>
        </mxCell>
        <mxCell id="P0PGrkJmzhgVx_-Z9-eN-106" value="" style="edgeStyle=orthogonalEdgeStyle;rounded=0;orthogonalLoop=1;jettySize=auto;html=1;entryX=0.5;entryY=1;entryDx=0;entryDy=0;dashed=1;exitX=0;exitY=0.5;exitDx=0;exitDy=0;" edge="1" parent="1" source="P0PGrkJmzhgVx_-Z9-eN-103" target="P0PGrkJmzhgVx_-Z9-eN-61">
          <mxGeometry relative="1" as="geometry">
            <mxPoint x="305" y="298" as="targetPoint" />
            <Array as="points">
              <mxPoint x="373" y="290" />
              <mxPoint x="280" y="290" />
              <mxPoint x="280" y="610" />
              <mxPoint x="790" y="610" />
            </Array>
          </mxGeometry>
        </mxCell>
        <mxCell id="P0PGrkJmzhgVx_-Z9-eN-103" value="配置size&amp;gt;=分页结束位置" style="rhombus;whiteSpace=wrap;html=1;" vertex="1" parent="1">
          <mxGeometry x="372.5" y="260" width="95" height="56" as="geometry" />
        </mxCell>
        <mxCell id="P0PGrkJmzhgVx_-Z9-eN-107" value="是" style="text;html=1;align=center;verticalAlign=middle;resizable=0;points=[];autosize=1;strokeColor=none;fillColor=none;" vertex="1" parent="1">
          <mxGeometry x="400" y="335" width="40" height="30" as="geometry" />
        </mxCell>
      </root>
    </mxGraphModel>
  </diagram>
</mxfile>
